<?xml version="1.0" encoding="UTF-8" standalone="no"?>
<!-- Created with Inkscape (http://www.inkscape.org/) -->

<svg
   version="1.1"
   id="svg25"
   xml:space="preserve"
   width="980.27747"
   height="279.70932"
   viewBox="0 0 980.27747 279.70932"
   xmlns="http://www.w3.org/2000/svg"
   xmlns:svg="http://www.w3.org/2000/svg"><defs
     id="defs29"><clipPath
       clipPathUnits="userSpaceOnUse"
       id="clipPath39"><path
         d="M 0,342 H 900 V 0 H 0 Z"
         id="path37" /></clipPath><linearGradient
       x1="0"
       y1="0"
       x2="1"
       y2="0"
       gradientUnits="userSpaceOnUse"
       gradientTransform="matrix(143.8119,176.06523,176.06523,-143.8119,117.698,55.755734)"
       spreadMethod="pad"
       id="linearGradient125"><stop
         style="stop-opacity:1;stop-color:#43a4db"
         offset="0"
         id="stop117" /><stop
         style="stop-opacity:1;stop-color:#43a4db"
         offset="0.286471"
         id="stop119" /><stop
         style="stop-opacity:1;stop-color:#43a4db"
         offset="0.47450398"
         id="stop121" /><stop
         style="stop-opacity:1;stop-color:#0d2e3f"
         offset="1"
         id="stop123" /></linearGradient></defs><g
     id="g31"
     transform="matrix(1.3333333,0,0,-1.3333333,-109.86133,367.85466)"><g
       id="g33"><g
         id="g35"
         clip-path="url(#clipPath39)"><g
           id="g41"
           transform="translate(398.652,169.8311)"><path
             d="m 0,0 h 11.139 c 12.597,0 18.523,9.076 18.523,21.297 0,10.594 -5.425,20.382 -18.487,20.382 H 0 Z m -8.233,48.576 h 20.236 c 15.698,0 26.248,-10.631 26.248,-27.149 0,-16.366 -10.274,-28.325 -26.546,-28.325 H -8.233 Z"
             style="fill:#215d81;fill-opacity:1;fill-rule:nonzero;stroke:none"
             id="path43" /></g><g
           id="g45"
           transform="translate(480.0075,188.4845)"><path
             d="M 0,0 H -27.389 V -18.581 H 2.715 L 1.677,-25.552 H -35.44 V 29.923 H 1.292 V 22.952 H -27.389 V 6.971 H 0 Z"
             style="fill:#215d81;fill-opacity:1;fill-rule:nonzero;stroke:none"
             id="path47" /></g><g
           id="g49"
           transform="translate(506.194,162.9327)"><path
             d="m 0,0 -20.077,55.475 h 8.844 L -1.751,28.201 C 1.037,20.135 3.718,12.241 4.951,7.058 h 0.16 c 1.161,4.662 4.124,12.888 6.985,20.897 l 9.883,27.52 h 8.473 L 9.722,0 Z"
             style="fill:#215d81;fill-opacity:1;fill-rule:nonzero;stroke:none"
             id="path51" /></g><g
           id="g53"
           transform="translate(578.152,188.4845)"><path
             d="M 0,0 H -27.389 V -18.581 H 2.716 L 1.677,-25.552 H -35.44 V 29.923 H 1.292 V 22.952 H -27.389 V 6.971 H 0 Z"
             style="fill:#215d81;fill-opacity:1;fill-rule:nonzero;stroke:none"
             id="path55" /></g><g
           id="g57"
           transform="translate(587.8347,218.4073)"><path
             d="m 0,0 h 8.233 v -48.504 h 28.689 l -1.09,-6.971 H 0 Z"
             style="fill:#215d81;fill-opacity:1;fill-rule:nonzero;stroke:none"
             id="path59" /></g><g
           id="g61"
           transform="translate(634.0544,190.9093)"><path
             d="m 0,0 c 0,-11.77 5.875,-21.841 17.405,-21.841 12.461,0 17.333,10.296 17.333,21.777 0,11.675 -5.526,21.427 -17.354,21.427 C 5.294,21.363 0,11.64 0,0 m 43.326,0.051 c 0,-15.291 -8.69,-28.825 -26.268,-28.825 -16.534,0 -25.646,12.627 -25.646,28.535 0,15.923 9.445,28.536 26.313,28.536 15.734,0 25.601,-11.662 25.601,-28.246"
             style="fill:#215d81;fill-opacity:1;fill-rule:nonzero;stroke:none"
             id="path63" /></g><g
           id="g65"
           transform="translate(693.4743,192.1583)"><path
             d="m 0,0 h 12.147 c 7.211,0 11.038,3.413 11.038,9.716 0,6.564 -4.516,9.708 -10.754,9.708 H 0 Z m -8.277,26.249 h 21.419 c 10.986,0 18.486,-6.143 18.486,-16.337 0,-11.044 -8.037,-16.737 -18.899,-16.737 H 0 v -22.401 h -8.277 z"
             style="fill:#215d81;fill-opacity:1;fill-rule:nonzero;stroke:none"
             id="path67" /></g><g
           id="g69"
           transform="translate(768.0056,188.4845)"><path
             d="M 0,0 H -27.39 V -18.581 H 2.715 L 1.677,-25.552 H -35.441 V 29.923 H 1.291 V 22.952 H -27.39 V 6.971 H 0 Z"
             style="fill:#215d81;fill-opacity:1;fill-rule:nonzero;stroke:none"
             id="path71" /></g><g
           id="g73"
           transform="translate(785.8591,193.7706)"><path
             d="m 0,0 h 11.684 c 8.118,0 11.618,3.057 11.618,8.989 0,5.635 -3.675,8.823 -10.893,8.823 H 0 Z m 0,-6.825 v -24.013 h -8.132 v 55.475 h 22.19 c 11.53,0 17.687,-6.274 17.687,-14.914 0,-7.254 -4.124,-11.56 -9.192,-13.064 4.189,-1.176 8.168,-4.457 8.168,-14.143 v -2.448 c 0,-3.804 -0.138,-8.531 0.756,-10.906 h -7.951 c -1.002,2.397 -0.98,6.689 -0.98,12.025 v 1.111 c 0,7.551 -2.099,10.877 -11.858,10.877 z"
             style="fill:#215d81;fill-opacity:1;fill-rule:nonzero;stroke:none"
             id="path75" /></g><g
           id="g77"
           transform="translate(460.778,123.2208)"><path
             d="M 0,0 V 29.645 H 5.724 C 9.871,22.766 18.663,8.54 20.27,5.315 h 0.062 c -0.295,3.671 -0.271,8.436 -0.271,13.282 v 11.048 h 4.113 V 0 h -5.39 C 15.005,6.312 5.75,21.783 3.966,25.128 H 3.903 C 4.116,21.9 4.132,16.673 4.132,11.331 V 0 Z"
             style="fill:#215d81;fill-opacity:1;fill-rule:nonzero;stroke:none"
             id="path79" /></g><g
           id="g81"
           transform="translate(524.4245,136.8751)"><path
             d="M 0,0 H -14.636 V -9.93 H 1.452 L 0.896,-13.654 H -18.937 V 15.99 H 0.691 V 12.266 H -14.636 V 3.726 H 0 Z"
             style="fill:#215d81;fill-opacity:1;fill-rule:nonzero;stroke:none"
             id="path83" /></g><g
           id="g85"
           transform="translate(551.489,149.1407)"><path
             d="M 0,0 H -9.468 V 3.725 H 13.895 V 0 H 4.423 V -25.92 H 0 Z"
             style="fill:#215d81;fill-opacity:1;fill-rule:nonzero;stroke:none"
             id="path87" /></g><g
           id="g89"
           transform="translate(589.5749,123.2208)"><path
             d="m 0,0 -7.873,29.645 h 4.659 C -0.819,19.196 2.018,8.109 2.525,4.745 h 0.043 c 0.846,4.132 4.688,17.411 6.584,24.9 h 4.192 C 15.074,23.2 18.923,8.819 19.645,4.924 h 0.042 c 0.959,5.389 4.867,18.912 6.392,24.721 h 4.325 L 21.872,0 H 17.188 C 15.438,6.771 11.854,20.041 11.07,23.883 H 11.027 C 10.104,19.301 6.503,6.651 4.659,0 Z"
             style="fill:#215d81;fill-opacity:1;fill-rule:nonzero;stroke:none"
             id="path91" /></g><g
           id="g93"
           transform="translate(639.9352,138.171)"><path
             d="m 0,0 c 0,-6.289 3.14,-11.672 9.301,-11.672 6.659,0 9.262,5.502 9.262,11.638 0,6.238 -2.953,11.45 -9.274,11.45 C 2.829,11.416 0,6.22 0,0 m 23.153,0.027 c 0,-8.172 -4.644,-15.404 -14.039,-15.404 -8.834,0 -13.704,6.747 -13.704,15.249 0,8.509 5.049,15.249 14.062,15.249 8.408,0 13.681,-6.231 13.681,-15.094"
             style="fill:#215d81;fill-opacity:1;fill-rule:nonzero;stroke:none"
             id="path95" /></g><g
           id="g97"
           transform="translate(686.5817,139.7003)"><path
             d="m 0,0 h 6.243 c 4.338,0 6.208,1.633 6.208,4.804 0,3.01 -1.963,4.714 -5.819,4.714 H 0 Z M 0,-3.647 V -16.479 H -4.345 V 13.165 H 7.512 c 6.162,0 9.452,-3.352 9.452,-7.97 0,-3.876 -2.204,-6.177 -4.912,-6.98 2.239,-0.629 4.365,-2.383 4.365,-7.559 v -1.307 c 0,-2.034 -0.074,-4.559 0.403,-5.828 h -4.248 c -0.535,1.28 -0.523,3.573 -0.523,6.425 v 0.594 c 0,4.035 -1.122,5.813 -6.337,5.813 z"
             style="fill:#215d81;fill-opacity:1;fill-rule:nonzero;stroke:none"
             id="path99" /></g><g
           id="g101"
           transform="translate(722.9557,152.8653)"><path
             d="M 0,0 H 4.36 V -14.294 C 6.518,-12.009 13.773,-4.703 18.274,0 h 5.421 L 11.108,-12.467 24.289,-29.645 H 18.966 L 8.027,-15.318 4.36,-18.667 V -29.645 H 0 Z"
             style="fill:#215d81;fill-opacity:1;fill-rule:nonzero;stroke:none"
             id="path103" /></g></g></g><g
       id="g105"><g
         id="g107"><g
           id="g113"><g
             id="g115"><path
               d="M 138.761,221.922 82.396,262.457 V 84.591 L 97.853,73.478 v 158.824 l 40.908,-29.42 V 66.109 l 143.066,52.929 -127.608,91.768 v 34.933 L 357.586,99.525 v 139.731 l -15.452,11.11 H 342.13 V 129.676 L 138.761,275.891 Z m 15.458,-30.155 94.993,-68.315 -94.993,-35.142 z"
               style="fill:url(#linearGradient125);stroke:none"
               id="path127" /></g></g></g></g></g></svg>
